<?xml version="1.0" encoding="utf-8" standalone="no"?>
<!DOCTYPE svg PUBLIC "-//W3C//DTD SVG 1.1//EN" "http://www.w3.org/Graphics/SVG/1.1/DTD/svg11.dtd">

<svg style="stroke-linejoin:round; stroke:black; stroke-width:0.5pt; text-anchor:middle; fill:none" xmlns="http://www.w3.org/2000/svg" height="297mm" width="210mm" version="1.1" xmlns:xlink="http://www.w3.org/1999/xlink" font-family="Helvetica, Arial, FreeSans, Sans, sans, sans-serif" viewBox="0 0 210 297">

<g>

<rect width="30.0" stroke="none" y="-1.5" x="0.0" fill="black" height="30.0" />

<rect width="30.0" stroke="none" y="58.5" x="0.0" fill="black" height="30.0" />

<rect width="30.0" stroke="none" y="118.5" x="0.0" fill="black" height="30.0" />

<rect width="30.0" stroke="none" y="178.5" x="0.0" fill="black" height="30.0" />

<rect width="30.0" stroke="none" y="238.5" x="0.0" fill="black" height="30.0" />

<rect width="30.0" stroke="none" y="28.5" x="30.0" fill="black" height="30.0" />

<rect width="30.0" stroke="none" y="88.5" x="30.0" fill="black" height="30.0" />

<rect width="30.0" stroke="none" y="148.5" x="30.0" fill="black" height="30.0" />

<rect width="30.0" stroke="none" y="208.5" x="30.0" fill="black" height="30.0" />

<rect width="30.0" stroke="none" y="268.5" x="30.0" fill="black" height="30.0" />

<rect width="30.0" stroke="none" y="-1.5" x="60.0" fill="black" height="30.0" />

<rect width="30.0" stroke="none" y="58.5" x="60.0" fill="black" height="30.0" />

<rect width="30.0" stroke="none" y="118.5" x="60.0" fill="black" height="30.0" />

<rect width="30.0" stroke="none" y="178.5" x="60.0" fill="black" height="30.0" />

<rect width="30.0" stroke="none" y="238.5" x="60.0" fill="black" height="30.0" />

<rect width="30.0" stroke="none" y="28.5" x="90.0" fill="black" height="30.0" />

<rect width="30.0" stroke="none" y="88.5" x="90.0" fill="black" height="30.0" />

<rect width="30.0" stroke="none" y="148.5" x="90.0" fill="black" height="30.0" />

<rect width="30.0" stroke="none" y="208.5" x="90.0" fill="black" height="30.0" />

<rect width="30.0" stroke="none" y="268.5" x="90.0" fill="black" height="30.0" />

<rect width="30.0" stroke="none" y="-1.5" x="120.0" fill="black" height="30.0" />

<rect width="30.0" stroke="none" y="58.5" x="120.0" fill="black" height="30.0" />

<rect width="30.0" stroke="none" y="118.5" x="120.0" fill="black" height="30.0" />

<rect width="30.0" stroke="none" y="178.5" x="120.0" fill="black" height="30.0" />

<rect width="30.0" stroke="none" y="238.5" x="120.0" fill="black" height="30.0" />

<rect width="30.0" stroke="none" y="28.5" x="150.0" fill="black" height="30.0" />

<rect width="30.0" stroke="none" y="88.5" x="150.0" fill="black" height="30.0" />

<rect width="30.0" stroke="none" y="148.5" x="150.0" fill="black" height="30.0" />

<rect width="30.0" stroke="none" y="208.5" x="150.0" fill="black" height="30.0" />

<rect width="30.0" stroke="none" y="268.5" x="150.0" fill="black" height="30.0" />

<rect width="30.0" stroke="none" y="-1.5" x="180.0" fill="black" height="30.0" />

<rect width="30.0" stroke="none" y="58.5" x="180.0" fill="black" height="30.0" />

<rect width="30.0" stroke="none" y="118.5" x="180.0" fill="black" height="30.0" />

<rect width="30.0" stroke="none" y="178.5" x="180.0" fill="black" height="30.0" />

<rect width="30.0" stroke="none" y="238.5" x="180.0" fill="black" height="30.0" />

</g>

</svg>

